<svg width="10" height="10" viewBox="0 0 10 10" fill="none" xmlns="http://www.w3.org/2000/svg">
<path d="M4.99998 10C7.73526 10 10 7.73529 10 5C10 2.26961 7.74016 0 5.00489 0C4.74508 0 4.61763 0.156863 4.61763 0.411768V2.31373C4.61763 2.52451 4.76469 2.69608 4.97547 2.69608C5.19115 2.69608 5.33822 2.52451 5.33822 2.31373V0.848043C7.49507 1.01961 9.16173 2.80392 9.16173 5C9.16173 7.31373 7.3137 9.16667 4.99998 9.16667C2.68626 9.16667 0.82843 7.31373 0.833329 5C0.838228 3.97059 1.20588 3.03431 1.82352 2.31373C1.97058 2.12255 1.98038 1.89216 1.81862 1.72059C1.65685 1.54412 1.38725 1.55883 1.20588 1.77941C0.460785 2.65196 0 3.77941 0 5C0 7.73529 2.2696 10 4.99998 10ZM5.78429 5.7549C6.17154 5.35294 6.09311 4.80392 5.62743 4.48039L3.0343 2.67157C2.7892 2.50001 2.53431 2.7549 2.70588 3L4.51468 5.59314C4.84312 6.05883 5.38723 6.14215 5.78429 5.7549Z" fill="#FF9500"/>
</svg>
