<svg width="53" height="109" viewBox="0 0 53 109" fill="none" xmlns="http://www.w3.org/2000/svg">
<g filter="url(#filter0_d)">
<rect x="4" width="45" height="101" rx="8" fill="#F9F9F9"/>
</g>
<path d="M16.225 79.2066L25.5069 79.2353C25.6788 79.2353 25.7552 79.3117 25.7552 79.4836L25.7742 88.7464C25.7742 89.9782 26.2422 90.9809 27.283 90.9809C28.2093 90.9809 28.7345 90.1406 29.1738 89.1665L38.6466 68.7597C38.8758 68.2632 39 67.8335 39 67.4515C39 66.6398 38.3697 66 37.5293 66C37.157 66 36.7177 66.1146 36.2307 66.3438L15.8048 75.7975C14.8785 76.2273 14 76.762 14 77.7074C14 78.7196 14.9645 79.2066 16.225 79.2066Z" fill="#007AFF"/>
<path fill-rule="evenodd" clip-rule="evenodd" d="M33.6923 23.3538C33.6923 28.7535 29.284 33.1308 23.8462 33.1308C18.4083 33.1308 14 28.7535 14 23.3538C14 17.9542 18.4083 13.5769 23.8462 13.5769C29.284 13.5769 33.6923 17.9542 33.6923 23.3538ZM16.4615 23.3538C16.4615 27.4036 19.7677 30.6865 23.8462 30.6865C27.9246 30.6865 31.2308 27.4036 31.2308 23.3538C31.2308 19.3041 27.9246 16.0212 23.8462 16.0212C19.7677 16.0212 16.4615 19.3041 16.4615 23.3538Z" fill="#007AFF"/>
<path fill-rule="evenodd" clip-rule="evenodd" d="M35.8769 37.6388C36.345 38.1282 37.124 38.148 37.6169 37.6832C38.1097 37.2183 38.1297 36.4448 37.6616 35.9554L30.8923 28.8793C30.4242 28.39 29.6452 28.3701 29.1523 28.8349C28.6595 29.2998 28.6395 30.0733 29.1076 30.5627L35.8769 37.6388Z" fill="#007AFF"/>
<path fill-rule="evenodd" clip-rule="evenodd" d="M4 51H49V52H4V51Z" fill="black" fill-opacity="0.1"/>
<defs>
<filter id="filter0_d" x="0" y="0" width="53" height="109" filterUnits="userSpaceOnUse" color-interpolation-filters="sRGB">
<feFlood flood-opacity="0" result="BackgroundImageFix"/>
<feColorMatrix in="SourceAlpha" type="matrix" values="0 0 0 0 0 0 0 0 0 0 0 0 0 0 0 0 0 0 127 0"/>
<feOffset dy="4"/>
<feGaussianBlur stdDeviation="2"/>
<feColorMatrix type="matrix" values="0 0 0 0 0 0 0 0 0 0 0 0 0 0 0 0 0 0 0.1 0"/>
<feBlend mode="normal" in2="BackgroundImageFix" result="effect1_dropShadow"/>
<feBlend mode="normal" in="SourceGraphic" in2="effect1_dropShadow" result="shape"/>
</filter>
</defs>
</svg>
