<svg width="50" height="50" viewBox="0 0 50 50" fill="none" xmlns="http://www.w3.org/2000/svg">
<circle cx="25" cy="25" r="25" fill="#FF9500"/>
<path d="M24.5 48C36.8163 48 47 37.8161 47 25.5C47 13.1838 36.7992 3 24.4829 3C12.1668 3 2 13.1838 2 25.5C2 37.8161 12.1668 48 24.5 48ZM24.5 44.1107C14.1797 44.1107 5.90635 35.8032 5.90635 25.5C5.90635 15.1967 14.1797 6.8893 24.4829 6.8893C34.7862 6.8893 43.0935 15.1967 43.0935 25.5C43.1106 35.8032 34.8033 44.1107 24.5 44.1107ZM16.9772 34.7456C20.6277 34.7456 23.1694 32.5792 23.1694 29.4746C23.1694 27.1888 21.583 25.3294 19.4166 25.1247V25.0053C21.2077 24.6982 22.6065 22.9071 22.6065 20.9113C22.6065 18.1478 20.3377 16.2373 17.0796 16.2373C14.2309 16.2373 12.0815 17.8578 11.5356 19.8878C11.4503 20.1948 11.4333 20.4166 11.4333 20.7066C11.4333 21.4913 11.9109 22.003 12.6444 22.003C13.2756 22.003 13.6338 21.696 13.8555 21.0478C14.2991 19.5637 15.3737 18.7278 17.0113 18.7278C18.7343 18.7278 19.9113 19.7513 19.9113 21.2695C19.9113 22.8048 18.7343 23.9647 17.0284 23.9647H15.9026C15.1691 23.9647 14.6914 24.4594 14.6914 25.2271C14.6914 25.9606 15.135 26.4894 15.9026 26.4894H17.1308C19.1266 26.4894 20.423 27.6494 20.423 29.3381C20.423 30.9928 19.0413 32.238 16.9943 32.238C15.3567 32.238 14.1285 31.4022 13.5485 29.9181C13.2926 29.287 12.9344 28.9628 12.3374 28.9628C11.638 28.9628 11.0921 29.4746 11.0921 30.2422C11.0921 30.5492 11.1433 30.771 11.2115 31.044C11.7915 33.0057 14.0944 34.7456 16.9772 34.7456ZM32.108 34.7627C35.639 34.7627 38.1124 32.4257 38.1124 28.5364C38.1124 24.9541 35.639 22.856 32.7904 22.856C30.5557 22.856 29.0375 24.1012 28.4575 25.5853H28.3211C28.3211 25.4829 28.3211 25.3977 28.3211 25.2612C28.3211 21.2184 29.9587 18.7107 32.398 18.7107C33.6773 18.7107 34.5986 19.3419 35.1614 20.2289C35.4856 20.6895 35.8098 20.9454 36.3726 20.9454C36.9697 20.9454 37.4472 20.4848 37.4472 19.8025C37.4472 19.4954 37.3962 19.2396 37.2767 18.9667C36.7478 17.5849 35.008 16.2373 32.5004 16.2373C28.3722 16.2373 25.7623 19.5296 25.7623 25.9435C25.7623 28.417 26.1546 30.3616 26.8881 31.7604C27.9458 33.8415 29.7881 34.7627 32.108 34.7627ZM31.9886 32.3916C29.9757 32.3916 28.5599 30.8563 28.5599 28.6729C28.5599 26.5747 29.9757 25.0906 32.0057 25.0906C34.0187 25.0906 35.4175 26.5576 35.4175 28.6899C35.4175 30.9416 34.0697 32.3916 31.9886 32.3916Z" fill="white"/>
</svg>
