<svg width="45" height="45" viewBox="0 0 45 45" fill="none" xmlns="http://www.w3.org/2000/svg">
<path d="M22.5 45C34.8163 45 45 34.8161 45 22.5C45 10.1838 34.7992 0 22.4829 0C10.1668 0 0 10.1838 0 22.5C0 34.8161 10.1668 45 22.5 45ZM22.5 41.1107C12.1797 41.1107 3.90635 32.8032 3.90635 22.5C3.90635 12.1967 12.1797 3.8893 22.4829 3.8893C32.7862 3.8893 41.0935 12.1967 41.0935 22.5C41.1106 32.8032 32.8033 41.1107 22.5 41.1107ZM28.1292 31.7456C31.8139 31.7456 34.3213 28.2828 34.3213 22.5C34.3213 16.7002 31.8139 13.2373 28.1292 13.2373C24.4276 13.2373 21.9541 16.7002 21.9541 22.5C21.9541 28.2828 24.4276 31.7456 28.1292 31.7456ZM16.666 31.558C17.5189 31.558 18.0307 31.0121 18.0307 30.108V14.9772C18.0307 13.9879 17.4166 13.3567 16.4613 13.3567C15.779 13.3567 15.3525 13.5444 14.619 14.0902L11.2926 16.3931C10.815 16.7684 10.5591 17.1437 10.5591 17.6895C10.5591 18.3889 11.1391 18.9519 11.7703 18.9519C12.1455 18.9519 12.3503 18.9007 12.7938 18.5254L15.199 16.7684H15.3184V30.108C15.3184 31.0121 15.8302 31.558 16.666 31.558ZM28.1292 29.1186C26.0822 29.1186 24.7687 26.6452 24.7687 22.5C24.7687 18.3378 26.0822 15.8643 28.1292 15.8643C30.1933 15.8643 31.5069 18.3378 31.5069 22.5C31.5069 26.6452 30.1933 29.1186 28.1292 29.1186Z" fill="black"/>
</svg>
