<svg width="50" height="50" viewBox="0 0 50 50" fill="none" xmlns="http://www.w3.org/2000/svg">
<path d="M24.9999 49.9998C38.6763 49.9998 50 38.6763 50 24.9999C50 11.348 38.6518 0 24.9754 0C11.3235 0 0 11.348 0 24.9999C0 38.6763 11.348 49.9998 24.9999 49.9998ZM24.9999 45.8332C13.4313 45.8332 4.19114 36.5685 4.19114 24.9999C4.19114 13.4558 13.4068 4.16666 24.9754 4.16666C36.544 4.16666 45.8086 13.4558 45.8332 24.9999C45.8578 36.5685 36.5685 45.8332 24.9999 45.8332ZM26.3234 34.9999H36.446C37.2303 34.9999 37.8185 34.4361 37.8185 33.5538C37.8185 32.6469 37.2303 32.1077 36.446 32.1077H29.3381V31.9607L34.142 26.3725C35.9557 24.2646 37.3038 22.4754 37.3038 20.0489C37.3038 16.6421 34.8038 14.4607 30.9558 14.4607C28.0391 14.4607 25.4411 16.299 24.8038 18.8235C24.7548 19.1176 24.7058 19.4117 24.7058 19.6813C24.7058 20.5881 25.2205 21.1764 26.0538 21.1764C26.7646 21.1764 27.1323 20.7352 27.4509 20.0244C28.0881 18.1862 29.3136 17.2793 31.0783 17.2793C33.0636 17.2793 34.3381 18.4803 34.3381 20.3185C34.3381 21.9117 33.0636 23.2597 31.8871 24.6568L25.4166 32.2548C25.0489 32.6469 24.8774 33.0881 24.8774 33.5538C24.8774 34.4361 25.4411 34.9999 26.3234 34.9999ZM18.3333 35.294C19.2892 35.294 19.8774 34.6812 19.8774 33.7009V16.3725C19.8774 15.3186 19.1911 14.6078 18.1617 14.6078C17.3529 14.6078 16.8872 14.8529 16.0293 15.4411L12.3039 17.9656C11.7646 18.3578 11.4705 18.7745 11.4705 19.4117C11.4705 20.245 12.1568 20.9068 12.8676 20.9068C13.2597 20.9068 13.5048 20.8823 14.0686 20.4411L16.6911 18.5048H16.8136V33.7009C16.8136 34.6812 17.4264 35.294 18.3333 35.294Z" fill="black"/>
</svg>
