<svg width="313" height="327" viewBox="0 0 313 327" fill="none" xmlns="http://www.w3.org/2000/svg">
<path d="M313 39.5L122 69L163.5 326" stroke="#FF9500" stroke-width="3"/>
<path fill-rule="evenodd" clip-rule="evenodd" d="M122 73C124.761 73 127 70.7614 127 68C127 65.2386 124.761 63 122 63C119.239 63 117 65.2386 117 68C117 70.7614 119.239 73 122 73Z" fill="#FF9500"/>
<g filter="url(#filter0_d)">
<path d="M4 14C4 9.58172 7.58172 6 12 6H233C237.418 6 241 9.58172 241 14V46C241 50.4183 237.418 54 233 54H12C7.58173 54 4 50.4183 4 46V14Z" fill="#F9F9F9"/>
<path d="M12 7.5H233C236.59 7.5 239.5 10.4102 239.5 14V46C239.5 49.5899 236.59 52.5 233 52.5H12C8.41015 52.5 5.5 49.5898 5.5 46V14C5.5 10.4102 8.41015 7.5 12 7.5Z" stroke="#FF9500" stroke-width="3"/>
</g>
<path d="M127.5 43C134.338 43 140 37.3382 140 30.5C140 23.674 134.35 18 127.512 18C126.863 18 126.544 18.3922 126.544 19.0294V23.7843C126.544 24.3113 126.912 24.7402 127.439 24.7402C127.978 24.7402 128.346 24.3113 128.346 23.7843V20.1201C133.738 20.549 137.904 25.0098 137.904 30.5C137.904 36.2843 133.284 40.9167 127.5 40.9167C121.716 40.9167 117.071 36.2843 117.083 30.5C117.096 27.9265 118.015 25.5858 119.559 23.7843C119.926 23.3064 119.951 22.7304 119.547 22.3015C119.142 21.8603 118.468 21.8971 118.015 22.4485C116.152 24.6299 115 27.4485 115 30.5C115 37.3382 120.674 43 127.5 43ZM129.461 32.3872C130.429 31.3823 130.233 30.0098 129.069 29.201L122.586 24.6789C121.973 24.25 121.336 24.8873 121.765 25.5L126.287 31.9828C127.108 33.1471 128.468 33.3554 129.461 32.3872Z" fill="#FF9500"/>
<path d="M151.648 35H153.86V24.4312H151.655L148.923 26.3281V28.3203L151.516 26.5186H151.648V35ZM160.456 35.271C162.837 35.271 164.426 33.7476 164.426 31.5063C164.426 29.375 162.968 28.0347 161.145 28.0347C160.046 28.0347 159.27 28.4229 158.83 29.082H158.698L158.969 26.189H163.855V24.4312H157.256L156.692 30.6274H158.669C158.999 29.9976 159.643 29.5947 160.478 29.5947C161.555 29.5947 162.317 30.3711 162.317 31.5356C162.317 32.7295 161.548 33.5132 160.434 33.5132C159.453 33.5132 158.698 32.9272 158.581 32.0044H156.538C156.604 33.894 158.164 35.271 160.456 35.271ZM180.944 35V24.4312H178.344L175.414 31.7188H175.282L172.36 24.4312H169.752V35H171.803V27.8442H171.92L174.616 34.48H176.088L178.776 27.8442H178.893V35H180.944ZM184.017 25.6982C184.676 25.6982 185.218 25.1709 185.218 24.5117C185.218 23.8452 184.676 23.3179 184.017 23.3179C183.358 23.3179 182.808 23.8452 182.808 24.5117C182.808 25.1709 183.358 25.6982 184.017 25.6982ZM182.948 35H185.079V26.936H182.948V35ZM186.878 35H189.009V30.3345C189.009 29.2432 189.617 28.54 190.606 28.54C191.617 28.54 192.093 29.1333 192.093 30.2686V35H194.224V29.7852C194.224 27.8589 193.257 26.7603 191.463 26.7603C190.269 26.7603 189.449 27.3242 189.075 28.2324H188.943V26.936H186.878V35ZM195.752 29.2871C195.752 30.5249 196.514 31.2646 198.081 31.6089L199.546 31.9385C200.256 32.0996 200.564 32.3486 200.564 32.7588C200.564 33.2935 199.993 33.6597 199.165 33.6597C198.315 33.6597 197.795 33.3301 197.634 32.7734H195.554C195.701 34.2969 196.99 35.1685 199.121 35.1685C201.238 35.1685 202.681 34.1284 202.681 32.5317C202.681 31.3306 201.977 30.6714 200.41 30.3271L198.894 29.9976C198.147 29.8291 197.803 29.5728 197.803 29.1626C197.803 28.6353 198.367 28.2764 199.128 28.2764C199.919 28.2764 200.41 28.606 200.52 29.1406H202.49C202.373 27.6172 201.164 26.7603 199.114 26.7603C197.1 26.7603 195.752 27.7783 195.752 29.2871Z" fill="#FF9500"/>
<path d="M43.2769 39H47.4058V19.2715H43.2905L38.1909 22.8125V26.5312L43.0308 23.168H43.2769V39ZM59.7188 39.5059C64.1621 39.5059 67.1289 36.6621 67.1289 32.4785C67.1289 28.5 64.4082 25.998 61.0039 25.998C58.9531 25.998 57.5039 26.7227 56.6836 27.9531H56.4375L56.9434 22.5527H66.0625V19.2715H53.7441L52.6914 30.8379H56.3828C56.9981 29.6621 58.2012 28.9102 59.7598 28.9102C61.7695 28.9102 63.1914 30.3594 63.1914 32.5332C63.1914 34.7617 61.7559 36.2246 59.6777 36.2246C57.8457 36.2246 56.4375 35.1309 56.2188 33.4082H52.4043C52.5274 36.9355 55.4395 39.5059 59.7188 39.5059ZM74.6294 39H78.7583V19.2715H74.6431L69.5435 22.8125V26.5312L74.3833 23.168H74.6294V39ZM99.3921 32.834V29.2383H90.4097V32.834H99.3921Z" fill="#FF9500"/>
<defs>
<filter id="filter0_d" x="0" y="0" width="245" height="56" filterUnits="userSpaceOnUse" color-interpolation-filters="sRGB">
<feFlood flood-opacity="0" result="BackgroundImageFix"/>
<feColorMatrix in="SourceAlpha" type="matrix" values="0 0 0 0 0 0 0 0 0 0 0 0 0 0 0 0 0 0 127 0"/>
<feOffset dy="-2"/>
<feGaussianBlur stdDeviation="2"/>
<feColorMatrix type="matrix" values="0 0 0 0 0 0 0 0 0 0 0 0 0 0 0 0 0 0 0.1 0"/>
<feBlend mode="normal" in2="BackgroundImageFix" result="effect1_dropShadow"/>
<feBlend mode="normal" in="SourceGraphic" in2="effect1_dropShadow" result="shape"/>
</filter>
</defs>
</svg>
