<svg width="45" height="45" viewBox="0 0 45 45" fill="none" xmlns="http://www.w3.org/2000/svg">
<path d="M22.5 45C34.8163 45 45 34.8161 45 22.5C45 10.1838 34.7992 0 22.4829 0C10.1668 0 0 10.1838 0 22.5C0 34.8161 10.1668 45 22.5 45ZM22.5 41.1107C12.1797 41.1107 3.90635 32.8032 3.90635 22.5C3.90635 12.1967 12.1797 3.8893 22.4829 3.8893C32.7862 3.8893 41.0935 12.1967 41.0935 22.5C41.1106 32.8032 32.8033 41.1107 22.5 41.1107ZM22.3635 32.8374C26.8669 32.8374 29.9033 30.0739 29.9033 25.8434C29.9033 22.0053 27.191 19.3612 23.2505 19.3612C21.4253 19.3612 19.583 20.163 18.7813 21.34H18.5936L19.1054 15.3867H27.7028C28.5387 15.3867 29.1186 14.8408 29.1186 14.0049C29.1186 13.1861 28.5728 12.6403 27.7028 12.6403H18.5254C17.1778 12.6403 16.2908 13.425 16.2054 14.6702L15.6255 21.9882C15.5402 23.2506 16.2566 24.0523 17.536 24.0523C18.3207 24.0523 18.7983 23.8647 19.5148 23.3188C20.5724 22.3806 21.4423 22.0223 22.6364 22.0223C24.8881 22.0223 26.4234 23.5917 26.4234 25.9116C26.4234 28.2487 24.6664 29.9886 22.3294 29.9886C20.5041 29.9886 19.003 29.0845 18.3377 27.6857C17.9795 27.0887 17.4848 26.7646 16.7854 26.7646C15.8643 26.7646 15.2672 27.3616 15.2672 28.1975C15.2672 28.5557 15.3355 28.8798 15.4719 29.1869C16.2908 31.4045 18.8154 32.8374 22.3635 32.8374Z" fill="black"/>
</svg>
